<svg xmlns="http://www.w3.org/2000/svg" xmlns:xlink="http://www.w3.org/1999/xlink" width="890" height="689.59"><rect width="890" height="689.59" rx="5" ry="5" class="a"/><svg y="0%" x="0%"><circle cx="20" cy="20" r="6" fill="#ff5f58"/><circle cx="40" cy="20" r="6" fill="#ffbd2e"/><circle cx="60" cy="20" r="6" fill="#18c132"/></svg><svg height="629.59" viewBox="0 0 85 62.959" width="850" x="15" xmlns="http://www.w3.org/2000/svg" xmlns:xlink="http://www.w3.org/1999/xlink" y="50"><style>.a{fill:#282d35}.g,.h{fill:#b9c0cb;white-space:pre}.h{fill:#b9bfca;text-decoration:underline}</style><g font-family="Monaco,Consolas,Menlo,'Bitstream Vera Sans Mono','Powerline Symbols',monospace" font-size="1.67"><defs><symbol id="a"><path fill="transparent" d="M0 0h85v30H0z"/></symbol></defs><path class="a" d="M0 0h85v62.959H0z"/><svg width="85"><svg><use xlink:href="#a"/><text y="1.67" class="g">An</text><text x="3.006" y="1.67" class="g">improved</text><text x="12.024" y="1.67" class="g">command-line</text><text x="25.05" y="1.67" class="g">for</text><text x="29.058" y="1.67" class="g">Blender.</text><text x="38.076" y="1.67" class="g">Manage</text><text x="45.09" y="1.67" class="g">versions,</text><text x="55.11" y="1.67" class="g">add-ons,</text><text x="64.128" y="1.67" class="g">renders</text><text x="72.144" y="1.67" class="g">and</text><text x="76.152" y="1.67" class="g">more.</text><text y="6.012" class="g">Documentation</text><text x="14.028" y="6.012" class="g">is</text><text x="17.034" y="6.012" class="g">available</text><text x="27.054" y="6.012" class="g">at</text><text x="30.06" y="6.012" class="g">https://docs.rocketblend.io/</text><text y="10.354" class="h">Usage:</text><text x="2.004" y="12.525" class="g">rocketblend</text><text x="14.028" y="12.525" class="g">[command]</text><text y="16.867" class="h">Available</text><text x="10.02" y="16.867" class="h">Commands:</text><text x="2.004" y="19.038" class="g">completion</text><text x="14.028" y="19.038" class="g">Generate</text><text x="23.046" y="19.038" class="g">the</text><text x="27.054" y="19.038" class="g">autocompletion</text><text x="42.084" y="19.038" class="g">script</text><text x="49.098" y="19.038" class="g">for</text><text x="53.106" y="19.038" class="g">the</text><text x="57.114" y="19.038" class="g">specified</text><text x="67.134" y="19.038" class="g">shell</text><text x="2.004" y="21.209" class="g">config</text><text x="14.028" y="21.209" class="g">Manage</text><text x="21.042" y="21.209" class="g">the</text><text x="25.05" y="21.209" class="g">configuration</text><text x="39.078" y="21.209" class="g">for</text><text x="43.086" y="21.209" class="g">RocketBlend</text><text x="2.004" y="23.38" class="g">describe</text><text x="14.028" y="23.38" class="g">Fetches</text><text x="22.044" y="23.38" class="g">a</text><text x="24.048" y="23.38" class="g">package</text><text x="32.064" y="23.38" class="g">definition</text><text x="2.004" y="25.551" class="g">help</text><text x="14.028" y="25.551" class="g">Help</text><text x="19.038" y="25.551" class="g">about</text><text x="25.05" y="25.551" class="g">any</text><text x="29.058" y="25.551" class="g">command</text><text x="2.004" y="27.722" class="g">insert</text><text x="14.028" y="27.722" class="g">Inserts</text><text x="22.044" y="27.722" class="g">a</text><text x="24.048" y="27.722" class="g">package</text><text x="32.064" y="27.722" class="g">into</text><text x="37.074" y="27.722" class="g">your</text><text x="42.084" y="27.722" class="g">local</text><text x="48.096" y="27.722" class="g">library</text><text x="2.004" y="29.893" class="g">install</text><text x="14.028" y="29.893" class="g">Installs</text><text x="23.046" y="29.893" class="g">project</text><text x="31.062" y="29.893" class="g">dependencies</text><text x="2.004" y="32.064" class="g">new</text><text x="14.028" y="32.064" class="g">Create</text><text x="21.042" y="32.064" class="g">a</text><text x="23.046" y="32.064" class="g">new</text><text x="27.054" y="32.064" class="g">project</text><text x="2.004" y="34.235" class="g">render</text><text x="14.028" y="34.235" class="g">Renders</text><text x="22.044" y="34.235" class="g">the</text><text x="26.052" y="34.235" class="g">project</text><text x="2.004" y="36.406" class="g">resolve</text><text x="14.028" y="36.406" class="g">Resolves</text><text x="23.046" y="36.406" class="g">and</text><text x="27.054" y="36.406" class="g">outputs</text><text x="35.07" y="36.406" class="g">project</text><text x="43.086" y="36.406" class="g">details</text><text x="2.004" y="38.577" class="g">run</text><text x="14.028" y="38.577" class="g">Runs</text><text x="19.038" y="38.577" class="g">the</text><text x="23.046" y="38.577" class="g">project</text><text x="2.004" y="40.748" class="g">uninstall</text><text x="14.028" y="40.748" class="g">Remove</text><text x="21.042" y="40.748" class="g">project</text><text x="29.058" y="40.748" class="g">dependencies</text><text y="45.09" class="h">Flags:</text><text x="2.004" y="47.261" class="g">-d,</text><text x="6.012" y="47.261" class="g">--directory</text><text x="18.036" y="47.261" class="g">string</text><text x="27.054" y="47.261" class="g">working</text><text x="35.07" y="47.261" class="g">directory</text><text x="45.09" y="47.261" class="g">for</text><text x="49.098" y="47.261" class="g">the</text><text x="53.106" y="47.261" class="g">command</text><text x="61.122" y="47.261" class="g">(default</text><text x="70.14" y="47.261" class="g">&quot;.&quot;)</text><text x="2.004" y="49.432" class="g">-h,</text><text x="6.012" y="49.432" class="g">--help</text><text x="27.054" y="49.432" class="g">help</text><text x="32.064" y="49.432" class="g">for</text><text x="36.072" y="49.432" class="g">rocketblend</text><text x="2.004" y="51.603" class="g">-l,</text><text x="6.012" y="51.603" class="g">--log-level</text><text x="18.036" y="51.603" class="g">string</text><text x="27.054" y="51.603" class="g">log</text><text x="31.062" y="51.603" class="g">level</text><text x="37.074" y="51.603" class="g">(debug,</text><text x="45.09" y="51.603" class="g">info,</text><text x="51.102" y="51.603" class="g">warn,</text><text x="57.114" y="51.603" class="g">error)</text><text x="64.128" y="51.603" class="g">(default</text><text x="73.146" y="51.603" class="g">&quot;info&quot;)</text><text x="2.004" y="53.774" class="g">-v,</text><text x="6.012" y="53.774" class="g">--verbose</text><text x="27.054" y="53.774" class="g">enable</text><text x="34.068" y="53.774" class="g">verbose</text><text x="42.084" y="53.774" class="g">logging</text><text x="6.012" y="55.945" class="g">--version</text><text x="27.054" y="55.945" class="g">version</text><text x="35.07" y="55.945" class="g">for</text><text x="39.078" y="55.945" class="g">rocketblend</text><text y="60.287" class="g">Use</text><text x="4.008" y="60.287" class="g">&quot;rocketblend</text><text x="17.034" y="60.287" class="g">[command]</text><text x="27.054" y="60.287" class="g">--help&quot;</text><text x="35.07" y="60.287" class="g">for</text><text x="39.078" y="60.287" class="g">more</text><text x="44.088" y="60.287" class="g">information</text><text x="56.112" y="60.287" class="g">about</text><text x="62.124" y="60.287" class="g">a</text><text x="64.128" y="60.287" class="g">command.</text></svg></svg></g></svg></svg>