<svg xmlns="http://www.w3.org/2000/svg" xmlns:xlink="http://www.w3.org/1999/xlink" width="890" height="581.04"><rect width="890" height="581.04" rx="5" ry="5" class="a"/><svg y="0%" x="0%"><circle cx="20" cy="20" r="6" fill="#ff5f58"/><circle cx="40" cy="20" r="6" fill="#ffbd2e"/><circle cx="60" cy="20" r="6" fill="#18c132"/></svg><svg height="521.04" viewBox="0 0 85 52.104" width="850" x="15" xmlns="http://www.w3.org/2000/svg" xmlns:xlink="http://www.w3.org/1999/xlink" y="50"><style>.a{fill:#282d35}.g{fill:#b9c0cb;white-space:pre}</style><g font-family="Monaco,Consolas,Menlo,'Bitstream Vera Sans Mono','Powerline Symbols',monospace" font-size="1.67"><defs><symbol id="a"><path fill="transparent" d="M0 0h85v24H0z"/></symbol></defs><path class="a" d="M0 0h85v52.104H0z"/><svg width="85"><svg><use xlink:href="#a"/><text y="1.67" class="g">RocketBlend</text><text x="12.024" y="1.67" class="g">is</text><text x="15.03" y="1.67" class="g">a</text><text x="17.034" y="1.67" class="g">tool</text><text x="22.044" y="1.67" class="g">for</text><text x="26.052" y="1.67" class="g">managing</text><text x="35.07" y="1.67" class="g">addons</text><text x="42.084" y="1.67" class="g">and</text><text x="46.092" y="1.67" class="g">versions</text><text x="55.11" y="1.67" class="g">of</text><text x="58.116" y="1.67" class="g">Blender.</text><text y="6.012" class="g">Usage:</text><text x="2.004" y="8.183" class="g">rocketblend</text><text x="14.028" y="8.183" class="g">[command]</text><text y="12.525" class="g">Available</text><text x="10.02" y="12.525" class="g">Commands:</text><text x="2.004" y="14.696" class="g">completion</text><text x="14.028" y="14.696" class="g">Generate</text><text x="23.046" y="14.696" class="g">the</text><text x="27.054" y="14.696" class="g">autocompletion</text><text x="42.084" y="14.696" class="g">script</text><text x="49.098" y="14.696" class="g">for</text><text x="53.106" y="14.696" class="g">the</text><text x="57.114" y="14.696" class="g">specified</text><text x="67.134" y="14.696" class="g">shell</text><text x="2.004" y="16.867" class="g">create</text><text x="14.028" y="16.867" class="g">creates</text><text x="22.044" y="16.867" class="g">a</text><text x="24.048" y="16.867" class="g">new</text><text x="28.056" y="16.867" class="g">project</text><text x="2.004" y="19.038" class="g">fetch</text><text x="14.028" y="19.038" class="g">fetches</text><text x="22.044" y="19.038" class="g">a</text><text x="24.048" y="19.038" class="g">packs</text><text x="30.06" y="19.038" class="g">details</text><text x="2.004" y="21.209" class="g">find</text><text x="14.028" y="21.209" class="g">Finds</text><text x="20.04" y="21.209" class="g">a</text><text x="22.044" y="21.209" class="g">packs</text><text x="28.056" y="21.209" class="g">details</text><text x="36.072" y="21.209" class="g">locally</text><text x="44.088" y="21.209" class="g">and</text><text x="48.096" y="21.209" class="g">validates</text><text x="58.116" y="21.209" class="g">it</text><text x="2.004" y="23.38" class="g">get</text><text x="14.028" y="23.38" class="g">gets</text><text x="19.038" y="23.38" class="g">a</text><text x="21.042" y="23.38" class="g">packge</text><text x="28.056" y="23.38" class="g">and</text><text x="32.064" y="23.38" class="g">installs</text><text x="41.082" y="23.38" class="g">it</text><text x="44.088" y="23.38" class="g">ready</text><text x="50.1" y="23.38" class="g">for</text><text x="54.108" y="23.38" class="g">use</text><text x="2.004" y="25.551" class="g">help</text><text x="14.028" y="25.551" class="g">Help</text><text x="19.038" y="25.551" class="g">about</text><text x="25.05" y="25.551" class="g">any</text><text x="29.058" y="25.551" class="g">command</text><text x="2.004" y="27.722" class="g">open</text><text x="14.028" y="27.722" class="g">Opens</text><text x="20.04" y="27.722" class="g">blender</text><text x="28.056" y="27.722" class="g">with</text><text x="33.066" y="27.722" class="g">the</text><text x="37.074" y="27.722" class="g">specified</text><text x="47.094" y="27.722" class="g">version</text><text x="2.004" y="29.893" class="g">pull</text><text x="14.028" y="29.893" class="g">pulls</text><text x="20.04" y="29.893" class="g">the</text><text x="24.048" y="29.893" class="g">actual</text><text x="31.062" y="29.893" class="g">data</text><text x="36.072" y="29.893" class="g">defined</text><text x="44.088" y="29.893" class="g">by</text><text x="47.094" y="29.893" class="g">a</text><text x="49.098" y="29.893" class="g">pack</text><text y="34.235" class="g">Flags:</text><text x="2.004" y="36.406" class="g">-h,</text><text x="6.012" y="36.406" class="g">--help</text><text x="17.034" y="36.406" class="g">help</text><text x="22.044" y="36.406" class="g">for</text><text x="26.052" y="36.406" class="g">rocketblend</text><text x="2.004" y="38.577" class="g">-t,</text><text x="6.012" y="38.577" class="g">--toggle</text><text x="17.034" y="38.577" class="g">Help</text><text x="22.044" y="38.577" class="g">message</text><text x="30.06" y="38.577" class="g">for</text><text x="34.068" y="38.577" class="g">toggle</text><text y="42.919" class="g">Use</text><text x="4.008" y="42.919" class="g">&quot;rocketblend</text><text x="17.034" y="42.919" class="g">[command]</text><text x="27.054" y="42.919" class="g">--help&quot;</text><text x="35.07" y="42.919" class="g">for</text><text x="39.078" y="42.919" class="g">more</text><text x="44.088" y="42.919" class="g">information</text><text x="56.112" y="42.919" class="g">about</text><text x="62.124" y="42.919" class="g">a</text><text x="64.128" y="42.919" class="g">command.</text></svg></svg></g></svg></svg>