<svg xmlns="http://www.w3.org/2000/svg" xmlns:xlink="http://www.w3.org/1999/xlink" width="890" height="667.88"><rect width="890" height="667.88" rx="5" ry="5" class="a"/><svg y="0%" x="0%"><circle cx="20" cy="20" r="6" fill="#ff5f58"/><circle cx="40" cy="20" r="6" fill="#ffbd2e"/><circle cx="60" cy="20" r="6" fill="#18c132"/></svg><svg height="607.88" viewBox="0 0 85 60.788" width="850" x="15" xmlns="http://www.w3.org/2000/svg" xmlns:xlink="http://www.w3.org/1999/xlink" y="50"><style>.a{fill:#282d35}.g,.h,.i{white-space:pre}.g{fill:#b9c0cb}.h,.i{font-weight:700}.h{fill:#66c2cd;text-decoration:underline}.i{fill:#b9bfca}</style><g font-family="Monaco,Consolas,Menlo,'Bitstream Vera Sans Mono','Powerline Symbols',monospace" font-size="1.67"><defs><symbol id="a"><path fill="transparent" d="M0 0h85v29H0z"/></symbol></defs><path class="a" d="M0 0h85v60.788H0z"/><svg width="85"><svg><use xlink:href="#a"/><text y="1.67" class="g">RocketBlend</text><text x="12.024" y="1.67" class="g">is</text><text x="15.03" y="1.67" class="g">a</text><text x="17.034" y="1.67" class="g">CLI</text><text x="21.042" y="1.67" class="g">tool</text><text x="26.052" y="1.67" class="g">that</text><text x="31.062" y="1.67" class="g">streamlines</text><text x="43.086" y="1.67" class="g">the</text><text x="47.094" y="1.67" class="g">process</text><text x="55.11" y="1.67" class="g">of</text><text x="58.116" y="1.67" class="g">managing</text><text y="3.841" class="g">builds</text><text x="7.014" y="3.841" class="g">and</text><text x="11.022" y="3.841" class="g">addons</text><text x="18.036" y="3.841" class="g">for</text><text x="22.044" y="3.841" class="g">Blender</text><text x="30.06" y="3.841" class="g">projects.</text><text y="8.183" class="g">Documentation</text><text x="14.028" y="8.183" class="g">is</text><text x="17.034" y="8.183" class="g">available</text><text x="27.054" y="8.183" class="g">at</text><text x="30.06" y="8.183" class="g">https://docs.rocketblend.io/</text><text y="12.525" class="h">Usage:</text><text x="2.004" y="14.696" class="i">rktb</text><text x="7.014" y="14.696" class="g">[command]</text><text y="19.038" class="h">Available</text><text x="10.02" y="19.038" class="h">Commands:</text><text x="2.004" y="21.209" class="i">completion</text><text x="15.03" y="21.209" class="g">Generate</text><text x="24.048" y="21.209" class="g">the</text><text x="28.056" y="21.209" class="g">autocompletion</text><text x="43.086" y="21.209" class="g">script</text><text x="50.1" y="21.209" class="g">for</text><text x="54.108" y="21.209" class="g">the</text><text x="58.116" y="21.209" class="g">specified</text><text x="68.136" y="21.209" class="g">shell</text><text x="2.004" y="23.38" class="i">config</text><text x="15.03" y="23.38" class="g">Manage</text><text x="22.044" y="23.38" class="g">the</text><text x="26.052" y="23.38" class="g">configuration</text><text x="40.08" y="23.38" class="g">for</text><text x="44.088" y="23.38" class="g">rocketblend</text><text x="2.004" y="25.551" class="i">describe</text><text x="15.03" y="25.551" class="g">Get</text><text x="19.038" y="25.551" class="g">the</text><text x="23.046" y="25.551" class="g">definition</text><text x="34.068" y="25.551" class="g">for</text><text x="38.076" y="25.551" class="g">a</text><text x="40.08" y="25.551" class="g">package</text><text x="2.004" y="27.722" class="i">help</text><text x="15.03" y="27.722" class="g">Help</text><text x="20.04" y="27.722" class="g">about</text><text x="26.052" y="27.722" class="g">any</text><text x="30.06" y="27.722" class="g">command</text><text x="2.004" y="29.893" class="i">install</text><text x="15.03" y="29.893" class="g">Install</text><text x="23.046" y="29.893" class="g">project</text><text x="31.062" y="29.893" class="g">dependencies</text><text x="2.004" y="32.064" class="i">new</text><text x="15.03" y="32.064" class="g">Create</text><text x="22.044" y="32.064" class="g">a</text><text x="24.048" y="32.064" class="g">new</text><text x="28.056" y="32.064" class="g">project</text><text x="2.004" y="34.235" class="i">render</text><text x="15.03" y="34.235" class="g">Render</text><text x="22.044" y="34.235" class="g">project</text><text x="2.004" y="36.406" class="i">resolve</text><text x="15.03" y="36.406" class="g">Output</text><text x="22.044" y="36.406" class="g">resolved</text><text x="31.062" y="36.406" class="g">information</text><text x="2.004" y="38.577" class="i">run</text><text x="15.03" y="38.577" class="g">Run</text><text x="19.038" y="38.577" class="g">project</text><text x="2.004" y="40.748" class="i">start</text><text x="15.03" y="40.748" class="g">Start</text><text x="21.042" y="40.748" class="g">project</text><text x="2.004" y="42.919" class="i">uninstall</text><text x="15.03" y="42.919" class="g">Remove</text><text x="22.044" y="42.919" class="g">project</text><text x="30.06" y="42.919" class="g">dependencies</text><text y="47.261" class="h">Flags:</text><text x="2.004" y="49.432" class="i">-d,</text><text x="6.012" y="49.432" class="i">--directory</text><text x="18.036" y="49.432" class="g">string</text><text x="27.054" y="49.432" class="g">working</text><text x="35.07" y="49.432" class="g">directory</text><text x="45.09" y="49.432" class="g">for</text><text x="49.098" y="49.432" class="g">the</text><text x="53.106" y="49.432" class="g">command</text><text x="61.122" y="49.432" class="g">(default</text><text x="70.14" y="49.432" class="g">&quot;.&quot;)</text><text x="2.004" y="51.603" class="i">-h,</text><text x="6.012" y="51.603" class="i">--help</text><text x="27.054" y="51.603" class="g">help</text><text x="32.064" y="51.603" class="g">for</text><text x="36.072" y="51.603" class="g">rktb</text><text y="55.945" class="g">Use</text><text x="4.008" y="55.945" class="g">&quot;</text><text x="5.01" y="55.945" class="i">rktb</text><text x="10.02" y="55.945" class="g">[command]</text><text x="20.04" y="55.945" class="g">--help&quot;</text><text x="28.056" y="55.945" class="g">for</text><text x="32.064" y="55.945" class="g">more</text><text x="37.074" y="55.945" class="g">information</text><text x="49.098" y="55.945" class="g">about</text><text x="55.11" y="55.945" class="g">a</text><text x="57.114" y="55.945" class="g">command.</text></svg></svg></g></svg></svg>